# xmcd
#
# Track frame offsets: 
#        150
#        15899
#        34191
#        45969
#        64085
#        83821
#        99590
#        112658
#        127950
#        145751
#        165926
#        182169
#        199007
#        210830
#        227017
#        240825
#        256501
#        275604
#        288672
#        304289
#
# Disc length: 4238 seconds
#
# Revision: 0
# Processed by: cddbd v1.5.2PL0 Copyright (c) Steve Scherf et al.
# Submitted via: ExactAudioCopyFreeDBPlugin 1.0
#
DISCID=f5108c14
DTITLE=Various Artist - Country The Collection CD1
DYEAR=2014
DGENRE=Country
TTITLE0=The Gambler - Kenny Rogers 
TTITLE1=Whiskey River (Remastered Lp Version) - Willie Nelson 
TTITLE2=I Walk The Line - The Everly Brothers 
TTITLE3=Hard Rock Bottom Of Your Heart - Randy Travis 
TTITLE4=Return Of The Grievous Angel - Gram Parsons 
TTITLE5=Honey Bee - Blake Shelton 
TTITLE6=Willin' - Little Feat 
TTITLE7=Cowgirl In The Sand - The Byrds 
TTITLE8=Kentucky Rain - Eddie Rabbitt 
TTITLE9=Constant Craving - K.D. Lang 
TTITLE10=Sticks And Stones (2007 Remastered Album Version) - Tracy Law
TTITLE10=rence 
TTITLE11=Sidewalks Of The City - Lucinda Williams 
TTITLE12=Drunkard's Dream - Gene Parsons 
TTITLE13=The Silver Tongued Devil And I - Kris Kristoffersen 
TTITLE14=Tennessee - Glen Campbell 
TTITLE15=Daddy's Hands - Holly Dunn 
TTITLE16=Love Be Still - Trick Pony 
TTITLE17=I'm So Lonesome I Could Cry - The Everly Brothers 
TTITLE18=My Tennessee Mountain Home - Maria Muldaur 
TTITLE19=Chastity's Song (Band Of Thieves) - Cher 
EXTD=Warner Music 2014\n\n
EXTT0=
EXTT1=
EXTT2=
EXTT3=
EXTT4=
EXTT5=
EXTT6=
EXTT7=
EXTT8=
EXTT9=
EXTT10=
EXTT11=
EXTT12=
EXTT13=
EXTT14=
EXTT15=
EXTT16=
EXTT17=
EXTT18=
EXTT19=
PLAYORDER=
